<svg id="Capa_1" enable-background="new 0 0 512 512" height="512" viewBox="0 0 512 512" width="512" xmlns="http://www.w3.org/2000/svg"><g><path d="m381.42 294.843h-280.84c-27.498 24.838-44.58 60.733-44.58 100.157v102c0 8.284 6.716 15 15 15h75l95-30 95 30h75c8.284 0 15-6.716 15-15v-19.573z" fill="#ece9e8"/><path d="m381.42 294.843h-140.42v187.157l95 30h75c8.284 0 15-6.716 15-15v-19.573z" fill="#ddd7d5"/><path d="m381.42 294.843c-19.995-18.061-45.496-30.277-73.944-33.749l-.905-.11h-131.142l-.905.11c-28.448 3.472-53.949 15.688-73.944 33.749 37.049 33.339 92.101 60.157 140.42 60.157s103.371-26.818 140.42-60.157z" fill="#ff8596"/><path d="m307.477 261.095-.905-.11h-65.572v94.015c48.319 0 103.371-26.818 140.42-60.157-19.994-18.061-45.496-30.276-73.943-33.748z" fill="#ff4a4a"/><path d="m411 450h-30c-8.284 0-15 6.716-15 15 0 8.284 6.716 15 15 15h30c5.156 0 10.215-.88 15-2.573v-34.909c-2.1 1.727-4.291 3.365-6.58 4.896-2.495 1.669-5.418 2.586-8.42 2.586z" fill="#cec5c2"/><path d="m336 512h-190v-17c0-46.944 38.056-85 85-85h20c46.944 0 85 38.056 85 85z" fill="#fff5f5"/><path d="m336 495c0-46.944-38.056-85-85-85h-10v102h95z" fill="#ece9e8"/><path d="m241 430c-24.813 0-45-20.187-45-45s20.187-45 45-45 45 20.187 45 45-20.187 45-45 45z" fill="#fff47d"/><path d="m241 340v90c24.813 0 45-20.187 45-45s-20.187-45-45-45z" fill="#ffda44"/><path d="m348.756 122.449 3.447-5.97c18.088-31.329 18.412-69.85.854-101.478h-.001c-33.087.557-63.543 17.081-82.364 43.854" fill="#ff4a4a"/><path d="m211.308 58.855c-18.821-26.772-49.277-43.297-82.364-43.854h-.001c-17.558 31.628-17.234 70.15.854 101.478l3.447 5.97" fill="#ff8596"/><path d="m348.742 137.452c-2.545 0-5.123-.648-7.485-2.011-7.175-4.142-9.634-13.315-5.492-20.49l3.446-5.97c13.803-23.906 15.432-53.146 4.809-78.321-24.349 3.059-46.697 16.396-61.057 36.822-4.765 6.779-14.123 8.408-20.898 3.645-6.777-4.764-8.408-14.121-3.645-20.897 21.667-30.819 56.95-49.595 94.384-50.225 5.548-.107 10.678 2.875 13.366 7.717 20 36.026 19.626 80.574-.978 116.259l-3.445 5.969c-2.778 4.811-7.821 7.502-13.005 7.502z" fill="#ddd7d5"/><path d="m133.258 137.452c-5.185 0-10.227-2.69-13.005-7.503l-3.446-5.97c-20.602-35.685-20.977-80.232-.979-116.258 2.688-4.843 7.802-7.802 13.367-7.718 37.435.63 72.718 19.406 94.385 50.225 4.764 6.777 3.133 16.133-3.645 20.897-6.777 4.765-16.133 3.134-20.898-3.645-14.359-20.426-36.708-33.764-61.056-36.822-10.623 25.174-8.995 54.415 4.807 78.32l3.447 5.971c4.142 7.175 1.683 16.349-5.492 20.49-2.361 1.364-4.941 2.013-7.485 2.013z" fill="#ece9e8"/><path d="m241 310c-74.439 0-135-60.561-135-135s60.561-135 135-135 135 60.561 135 135-60.561 135-135 135z" fill="#fff5f5"/><path d="m241 40v270c74.439 0 135-60.561 135-135s-60.561-135-135-135z" fill="#ece9e8"/><path d="m306.008 171.892c-4.312 0-8.593-1.851-11.559-5.431-2.441-2.947-5.442-4.569-8.449-4.569s-6.008 1.623-8.449 4.569c-5.285 6.38-14.742 7.266-21.12 1.982-6.38-5.285-7.267-14.741-1.981-21.121 8.124-9.807 19.624-15.431 31.551-15.431s23.427 5.624 31.551 15.431c5.285 6.379 4.398 15.835-1.981 21.121-2.8 2.318-6.191 3.449-9.563 3.449z" fill="#006369"/><g fill="#007578"><path d="m216.008 171.892c-4.312 0-8.593-1.851-11.559-5.431-2.441-2.947-5.442-4.569-8.449-4.569s-6.008 1.623-8.449 4.569c-5.285 6.38-14.743 7.266-21.12 1.982-6.38-5.285-7.267-14.741-1.981-21.121 8.124-9.807 19.624-15.431 31.551-15.431s23.427 5.624 31.551 15.431c5.285 6.379 4.398 15.835-1.981 21.121-2.8 2.318-6.191 3.449-9.563 3.449z"/><path d="m271 250c-11.515 0-22.033-4.347-30-11.486-7.967 7.139-18.485 11.486-30 11.486-8.284 0-15-6.716-15-15s6.716-15 15-15c8.271 0 15-6.729 15-15 0-8.284 6.716-15 15-15s15 6.716 15 15c0 8.271 6.729 15 15 15 8.284 0 15 6.716 15 15s-6.716 15-15 15z"/><path d="m271 220c-8.271 0-15-6.729-15-15 0-8.284-6.716-15-15-15v48.514c7.967 7.139 18.485 11.486 30 11.486 8.284 0 15-6.716 15-15s-6.716-15-15-15z"/></g><path d="m456 165c0-19.33-15.67-35-35-35h-20c-19.33 0-35 15.67-35 35v25c0 8.284 6.716 15 15 15h60c8.284 0 15-6.716 15-15z" fill="#cec5c2"/><path d="m366 190v245c0 8.284 6.716 15 15 15h30c2.962 0 5.856-.876 8.32-2.52 22.968-15.312 36.68-40.933 36.68-68.536v-188.944z" fill="#ddd7d5"/></g></svg>